<?xml version="1.0" standalone="no"?>
<!DOCTYPE svg PUBLIC "-//W3C//DTD SVG 20010904//EN"
 "http://www.w3.org/TR/2001/REC-SVG-20010904/DTD/svg10.dtd">
<svg version="1.0" xmlns="http://www.w3.org/2000/svg"
 width="640.000000pt" height="640.000000pt" viewBox="0 0 640.000000 640.000000"
 preserveAspectRatio="xMidYMid meet">
<metadata>
Created by potrace 1.11, written by Peter Selinger 2001-2013
</metadata>
<g transform="translate(0.000000,640.000000) scale(0.100000,-0.100000)"
fill="#000000" stroke="none">
<path d="M975 6379 c-49 -11 -100 -22 -112 -24 -95 -21 -304 -130 -411 -214
-199 -157 -366 -419 -419 -656 -2 -11 -6 -29 -8 -40 -3 -11 -8 -31 -12 -45 -4
-14 -9 -995 -10 -2180 -2 -2078 -1 -2158 17 -2245 70 -333 250 -601 526 -781
114 -75 278 -144 399 -168 17 -4 41 -10 55 -14 14 -3 995 -7 2180 -8 2067 -2
2159 -1 2245 17 325 67 595 246 774 512 71 105 153 298 175 412 4 17 10 41 13
55 11 35 13 4293 3 4360 -15 100 -21 124 -46 203 -51 156 -144 325 -234 421
-21 22 -47 50 -57 62 -37 41 -150 131 -225 177 -87 55 -232 117 -328 140 -36
9 -78 20 -95 24 -16 4 -1000 8 -2185 10 -2111 2 -2157 1 -2245 -18z"/>
</g>
</svg>
